<svg width="62" height="64" viewBox="0 0 62 64" fill="none" xmlns="http://www.w3.org/2000/svg">
<rect width="61.8305" height="64" rx="6" fill="#D8F2E2"/>
<path d="M50.3049 19.9448L42.9587 24.2752C41.9927 24.8446 40.7758 24.7608 39.897 24.0642L31.6104 17.4955C30.7744 16.8328 29.6275 16.7219 28.68 17.212L26.795 18.1869C24.8871 19.1738 24.8292 21.8815 26.6932 22.949L51.7879 37.3204C52.6316 37.8035 53.1521 38.7014 53.1521 39.6736V48.704C53.1521 49.6917 52.6151 50.6013 51.7503 51.0784L45.3774 54.5945C43.57 55.5917 41.3555 54.2843 41.3555 52.22V47.4826C41.3555 46.5402 40.8663 45.6654 40.0633 45.1721L8.88491 26.0142C8.082 25.5209 7.59277 24.6461 7.59277 23.7037V17.9677C7.59277 17.0013 8.10698 16.108 8.94257 15.6227L28.8537 4.05752C29.7071 3.56184 30.7624 3.5689 31.6091 4.07595L50.3211 15.282C52.0863 16.3392 52.0774 18.8999 50.3049 19.9448Z" fill="#16434A" stroke="white" stroke-width="0.271186"/>
<path d="M30.2428 43.6264L24.642 46.6475L24.8587 53.6296C24.8827 54.4019 24.0589 54.9085 23.3805 54.5385L18.2583 51.7457C17.9467 51.5758 17.7485 51.2535 17.7375 50.8987L17.4844 42.7449L23.8701 38.7302C24.187 38.531 24.5887 38.5254 24.911 38.7158L30.2767 41.8852C30.9468 42.281 30.9278 43.2569 30.2428 43.6264Z" fill="#054350"/>
<path d="M17.4844 42.7449L24.642 46.6475M17.4844 42.7449L23.8701 38.7302C24.187 38.531 24.5887 38.5254 24.911 38.7158L30.2767 41.8852C30.9468 42.281 30.9278 43.2569 30.2428 43.6264L24.642 46.6475M17.4844 42.7449L17.7375 50.8987C17.7485 51.2535 17.9467 51.5758 18.2583 51.7457L23.3805 54.5385C24.0589 54.9085 24.8827 54.4019 24.8587 53.6296L24.642 46.6475" stroke="white" stroke-width="0.485041"/>
<path d="M22.6265 39.2979L17.1102 42.4708L17.5175 49.4443C17.5625 50.2158 16.7529 50.7446 16.0646 50.3933L10.8681 47.7413C10.5519 47.58 10.345 47.2632 10.3243 46.9089L9.84875 38.765L16.1226 34.5775C16.4339 34.3697 16.8352 34.3532 17.1626 34.5347L22.6128 37.5565C23.2935 37.9339 23.3012 38.9099 22.6265 39.2979Z" fill="#D0460B"/>
<path d="M9.84875 38.765L17.1102 42.4708M9.84875 38.765L16.1226 34.5775C16.4339 34.3697 16.8352 34.3532 17.1626 34.5347L22.6128 37.5565C23.2935 37.9339 23.3012 38.9099 22.6265 39.2979L17.1102 42.4708M9.84875 38.765L10.3243 46.9089C10.345 47.2632 10.5519 47.58 10.8681 47.7413L16.0646 50.3933C16.7529 50.7446 17.5625 50.2158 17.5175 49.4443L17.1102 42.4708" stroke="white" stroke-width="0.485041"/>
<path d="M33.5822 43.3867L40.3429 47.6684V55.3314C40.3429 55.6915 40.1492 56.0239 39.8359 56.2014L33.0673 60.037L26.5285 56.2039C26.2223 56.0244 26.0342 55.6961 26.0342 55.3412V47.1834L32.5414 43.3688C32.8644 43.1795 33.266 43.1864 33.5822 43.3867Z" fill="#D0460B"/>
<path d="M26.0342 47.1834L33.0673 51.3062M26.0342 47.1834L32.5414 43.3688C32.8644 43.1795 33.266 43.1864 33.5822 43.3867L40.3429 47.6684M26.0342 47.1834V55.3412C26.0342 55.6961 26.2223 56.0244 26.5285 56.2039L33.0673 60.037M33.0673 51.3062L40.3429 47.6684M33.0673 51.3062V60.037M40.3429 47.6684V55.3314C40.3429 55.6915 40.1492 56.0239 39.8359 56.2014L33.0673 60.037" stroke="white" stroke-width="0.485041"/>
</svg>
